# xmcd CD database file
#
# Track frame offsets:
#	150
#	15665
#	29267
#	46422
#	64437
#	81570
#	95587
#	115172
#	133905
#	153700
#	171352
#	186970
#
# Disc length: 2632 seconds
#
# Revision: 2
# Processed by: cddbd v1.4PL0 Copyright (c) Steve Scherf et al.
# Submitted via: CDex 1.50Beta7
#
DISCID=ae0a460c
DTITLE=E. C. Scott - Masterpiece
DYEAR=2000
DGENRE=Blues
TTITLE0=Living For The Weekend
TTITLE1=Too Good To Keep To Myself
TTITLE2=Running
TTITLE3=Wise As A Fool
TTITLE4=Masterpiece
TTITLE5=If You Don't Love Me
TTITLE6=Sledgehammer
TTITLE7=What A Good Feeling
TTITLE8=Funkafied Blues
TTITLE9=Make A Man Kit
TTITLE10=Party
TTITLE11=Shine On Me
EXTD=YEAR: 2000
EXTT0=
EXTT1=
EXTT2=
EXTT3=
EXTT4=
EXTT5=
EXTT6=
EXTT7=
EXTT8=
EXTT9=
EXTT10=
EXTT11=
PLAYORDER=
